<mxfile host="Electron" agent="Mozilla/5.0 (Windows NT 10.0; Win64; x64) AppleWebKit/537.36 (KHTML, like Gecko) draw.io/27.0.9 Chrome/134.0.6998.205 Electron/35.4.0 Safari/537.36" version="27.0.9">
  <diagram name="PÃ¡gina-1" id="9isl0IfGqPw5kBwzbt4_">
    <mxGraphModel dx="988" dy="579" grid="1" gridSize="10" guides="1" tooltips="1" connect="1" arrows="1" fold="1" page="1" pageScale="1" pageWidth="827" pageHeight="1169" math="0" shadow="0">
      <root>
        <mxCell id="0" />
        <mxCell id="1" parent="0" />
        <mxCell id="pT85UgbYqkh7ice3-jCJ-1" value="cliente" style="whiteSpace=wrap;html=1;align=center;fillColor=#f0a30a;strokeColor=#BD7000;fontColor=#000000;" vertex="1" parent="1">
          <mxGeometry x="365" y="610" width="100" height="40" as="geometry" />
        </mxCell>
        <mxCell id="pT85UgbYqkh7ice3-jCJ-3" value="reserva" style="whiteSpace=wrap;html=1;align=center;fillColor=#f0a30a;strokeColor=#BD7000;fontColor=#000000;" vertex="1" parent="1">
          <mxGeometry x="576" y="430" width="100" height="40" as="geometry" />
        </mxCell>
        <mxCell id="pT85UgbYqkh7ice3-jCJ-4" value="" style="endArrow=none;html=1;rounded=0;exitX=0;exitY=0.75;exitDx=0;exitDy=0;" edge="1" parent="1" source="pT85UgbYqkh7ice3-jCJ-1" target="pT85UgbYqkh7ice3-jCJ-5">
          <mxGeometry relative="1" as="geometry">
            <mxPoint x="333.2352941176471" y="650" as="sourcePoint" />
            <mxPoint x="365" y="575" as="targetPoint" />
          </mxGeometry>
        </mxCell>
        <mxCell id="pT85UgbYqkh7ice3-jCJ-5" value="&lt;u&gt;Codigocliente&lt;/u&gt;" style="ellipse;whiteSpace=wrap;html=1;align=center;" vertex="1" parent="1">
          <mxGeometry x="190" y="570" width="80" height="30" as="geometry" />
        </mxCell>
        <mxCell id="pT85UgbYqkh7ice3-jCJ-6" value="" style="endArrow=none;html=1;rounded=0;exitX=0;exitY=0.25;exitDx=0;exitDy=0;" edge="1" parent="1" source="pT85UgbYqkh7ice3-jCJ-1" target="pT85UgbYqkh7ice3-jCJ-7">
          <mxGeometry relative="1" as="geometry">
            <mxPoint x="339.5454545454545" y="650" as="sourcePoint" />
            <mxPoint x="415" y="605" as="targetPoint" />
          </mxGeometry>
        </mxCell>
        <mxCell id="pT85UgbYqkh7ice3-jCJ-7" value="nombre" style="ellipse;whiteSpace=wrap;html=1;align=center;" vertex="1" parent="1">
          <mxGeometry x="270" y="600" width="50" height="30" as="geometry" />
        </mxCell>
        <mxCell id="pT85UgbYqkh7ice3-jCJ-8" value="" style="endArrow=none;html=1;rounded=0;" edge="1" parent="1" source="pT85UgbYqkh7ice3-jCJ-1" target="pT85UgbYqkh7ice3-jCJ-9">
          <mxGeometry relative="1" as="geometry">
            <mxPoint x="325" y="575" as="sourcePoint" />
            <mxPoint x="385" y="575" as="targetPoint" />
          </mxGeometry>
        </mxCell>
        <mxCell id="pT85UgbYqkh7ice3-jCJ-9" value="direccion" style="ellipse;whiteSpace=wrap;html=1;align=center;" vertex="1" parent="1">
          <mxGeometry x="190" y="610" width="50" height="30" as="geometry" />
        </mxCell>
        <mxCell id="pT85UgbYqkh7ice3-jCJ-10" value="" style="endArrow=none;html=1;rounded=0;" edge="1" parent="1" source="pT85UgbYqkh7ice3-jCJ-1" target="pT85UgbYqkh7ice3-jCJ-11">
          <mxGeometry relative="1" as="geometry">
            <mxPoint x="422.5" y="525" as="sourcePoint" />
            <mxPoint x="482.5" y="525" as="targetPoint" />
          </mxGeometry>
        </mxCell>
        <mxCell id="pT85UgbYqkh7ice3-jCJ-11" value="telefono" style="ellipse;whiteSpace=wrap;html=1;align=center;" vertex="1" parent="1">
          <mxGeometry x="255" y="550" width="50" height="30" as="geometry" />
        </mxCell>
        <mxCell id="pT85UgbYqkh7ice3-jCJ-12" value="" style="endArrow=none;html=1;rounded=0;" edge="1" parent="1" source="pT85UgbYqkh7ice3-jCJ-3" target="pT85UgbYqkh7ice3-jCJ-13">
          <mxGeometry relative="1" as="geometry">
            <mxPoint x="556" y="355" as="sourcePoint" />
            <mxPoint x="616" y="355" as="targetPoint" />
          </mxGeometry>
        </mxCell>
        <mxCell id="pT85UgbYqkh7ice3-jCJ-13" value="&lt;u&gt;numero_identificacion&lt;/u&gt;" style="ellipse;whiteSpace=wrap;html=1;align=center;" vertex="1" parent="1">
          <mxGeometry x="558.5" y="350" width="135" height="40" as="geometry" />
        </mxCell>
        <mxCell id="pT85UgbYqkh7ice3-jCJ-14" value="" style="endArrow=none;html=1;rounded=0;" edge="1" parent="1" source="pT85UgbYqkh7ice3-jCJ-3" target="pT85UgbYqkh7ice3-jCJ-15">
          <mxGeometry relative="1" as="geometry">
            <mxPoint x="666" y="405" as="sourcePoint" />
            <mxPoint x="726" y="405" as="targetPoint" />
          </mxGeometry>
        </mxCell>
        <mxCell id="pT85UgbYqkh7ice3-jCJ-15" value="fecha_inicio" style="ellipse;whiteSpace=wrap;html=1;align=center;" vertex="1" parent="1">
          <mxGeometry x="701" y="390" width="75" height="30" as="geometry" />
        </mxCell>
        <mxCell id="pT85UgbYqkh7ice3-jCJ-16" value="" style="endArrow=none;html=1;rounded=0;" edge="1" parent="1" source="pT85UgbYqkh7ice3-jCJ-3" target="pT85UgbYqkh7ice3-jCJ-17">
          <mxGeometry relative="1" as="geometry">
            <mxPoint x="491" y="395" as="sourcePoint" />
            <mxPoint x="551" y="395" as="targetPoint" />
          </mxGeometry>
        </mxCell>
        <mxCell id="pT85UgbYqkh7ice3-jCJ-17" value="finfecha" style="ellipse;whiteSpace=wrap;html=1;align=center;" vertex="1" parent="1">
          <mxGeometry x="526" y="380" width="50" height="30" as="geometry" />
        </mxCell>
        <mxCell id="pT85UgbYqkh7ice3-jCJ-18" value="" style="endArrow=none;html=1;rounded=0;" edge="1" parent="1" source="pT85UgbYqkh7ice3-jCJ-3" target="pT85UgbYqkh7ice3-jCJ-19">
          <mxGeometry relative="1" as="geometry">
            <mxPoint x="686" y="345" as="sourcePoint" />
            <mxPoint x="746" y="345" as="targetPoint" />
          </mxGeometry>
        </mxCell>
        <mxCell id="pT85UgbYqkh7ice3-jCJ-19" value="precio_total" style="ellipse;whiteSpace=wrap;html=1;align=center;" vertex="1" parent="1">
          <mxGeometry x="696" y="330" width="75" height="30" as="geometry" />
        </mxCell>
        <mxCell id="pT85UgbYqkh7ice3-jCJ-20" value="coche" style="whiteSpace=wrap;html=1;align=center;fillColor=#f0a30a;strokeColor=#BD7000;fontColor=#000000;" vertex="1" parent="1">
          <mxGeometry x="576" y="670" width="100" height="40" as="geometry" />
        </mxCell>
        <mxCell id="pT85UgbYqkh7ice3-jCJ-21" value="" style="endArrow=none;html=1;rounded=0;exitX=0;exitY=1;exitDx=0;exitDy=0;" edge="1" parent="1" source="pT85UgbYqkh7ice3-jCJ-1" target="pT85UgbYqkh7ice3-jCJ-22">
          <mxGeometry relative="1" as="geometry">
            <mxPoint x="315" y="650" as="sourcePoint" />
            <mxPoint x="285" y="595" as="targetPoint" />
          </mxGeometry>
        </mxCell>
        <mxCell id="pT85UgbYqkh7ice3-jCJ-22" value="dni" style="ellipse;whiteSpace=wrap;html=1;align=center;" vertex="1" parent="1">
          <mxGeometry x="140" y="590" width="50" height="30" as="geometry" />
        </mxCell>
        <mxCell id="pT85UgbYqkh7ice3-jCJ-23" value="incluye" style="shape=rhombus;perimeter=rhombusPerimeter;whiteSpace=wrap;html=1;align=center;fillColor=#76608a;fontColor=#ffffff;strokeColor=#432D57;" vertex="1" parent="1">
          <mxGeometry x="581" y="600" width="90" height="40" as="geometry" />
        </mxCell>
        <mxCell id="pT85UgbYqkh7ice3-jCJ-24" value="" style="endArrow=none;html=1;rounded=0;exitX=0.5;exitY=1;exitDx=0;exitDy=0;" edge="1" parent="1" source="pT85UgbYqkh7ice3-jCJ-23" target="pT85UgbYqkh7ice3-jCJ-20">
          <mxGeometry relative="1" as="geometry">
            <mxPoint x="801" y="690" as="sourcePoint" />
            <mxPoint x="451" y="640" as="targetPoint" />
          </mxGeometry>
        </mxCell>
        <mxCell id="pT85UgbYqkh7ice3-jCJ-25" value="(1,N)" style="resizable=0;html=1;whiteSpace=wrap;align=right;verticalAlign=bottom;" connectable="0" vertex="1" parent="pT85UgbYqkh7ice3-jCJ-24">
          <mxGeometry x="1" relative="1" as="geometry">
            <mxPoint x="-176" y="-180" as="offset" />
          </mxGeometry>
        </mxCell>
        <mxCell id="pT85UgbYqkh7ice3-jCJ-26" value="" style="endArrow=none;html=1;rounded=0;exitX=0.5;exitY=0;exitDx=0;exitDy=0;" edge="1" parent="1" source="pT85UgbYqkh7ice3-jCJ-23" target="pT85UgbYqkh7ice3-jCJ-3">
          <mxGeometry relative="1" as="geometry">
            <mxPoint x="278" y="540" as="sourcePoint" />
            <mxPoint x="451" y="570" as="targetPoint" />
          </mxGeometry>
        </mxCell>
        <mxCell id="pT85UgbYqkh7ice3-jCJ-27" value="(1,M)" style="resizable=0;html=1;whiteSpace=wrap;align=right;verticalAlign=bottom;" connectable="0" vertex="1" parent="pT85UgbYqkh7ice3-jCJ-26">
          <mxGeometry x="1" relative="1" as="geometry">
            <mxPoint x="-13" y="20" as="offset" />
          </mxGeometry>
        </mxCell>
        <mxCell id="pT85UgbYqkh7ice3-jCJ-28" value="realiza" style="shape=rhombus;perimeter=rhombusPerimeter;whiteSpace=wrap;html=1;align=center;fillColor=#76608a;fontColor=#ffffff;strokeColor=#432D57;" vertex="1" parent="1">
          <mxGeometry x="380" y="430" width="90" height="40" as="geometry" />
        </mxCell>
        <mxCell id="pT85UgbYqkh7ice3-jCJ-29" value="" style="endArrow=none;html=1;rounded=0;exitX=0.5;exitY=0;exitDx=0;exitDy=0;entryX=0.5;entryY=1;entryDx=0;entryDy=0;" edge="1" parent="1" source="pT85UgbYqkh7ice3-jCJ-1" target="pT85UgbYqkh7ice3-jCJ-28">
          <mxGeometry relative="1" as="geometry">
            <mxPoint x="342" y="420" as="sourcePoint" />
            <mxPoint x="295" y="450" as="targetPoint" />
          </mxGeometry>
        </mxCell>
        <mxCell id="pT85UgbYqkh7ice3-jCJ-30" value="(1,1)" style="resizable=0;html=1;whiteSpace=wrap;align=right;verticalAlign=bottom;" connectable="0" vertex="1" parent="pT85UgbYqkh7ice3-jCJ-29">
          <mxGeometry x="1" relative="1" as="geometry">
            <mxPoint x="204" y="180" as="offset" />
          </mxGeometry>
        </mxCell>
        <mxCell id="pT85UgbYqkh7ice3-jCJ-31" value="" style="endArrow=none;html=1;rounded=0;exitX=1;exitY=0.5;exitDx=0;exitDy=0;" edge="1" parent="1" source="pT85UgbYqkh7ice3-jCJ-28" target="pT85UgbYqkh7ice3-jCJ-3">
          <mxGeometry relative="1" as="geometry">
            <mxPoint x="453" y="420" as="sourcePoint" />
            <mxPoint x="626" y="450" as="targetPoint" />
          </mxGeometry>
        </mxCell>
        <mxCell id="pT85UgbYqkh7ice3-jCJ-32" value="(0,N)" style="resizable=0;html=1;whiteSpace=wrap;align=right;verticalAlign=bottom;" connectable="0" vertex="1" parent="pT85UgbYqkh7ice3-jCJ-31">
          <mxGeometry x="1" relative="1" as="geometry">
            <mxPoint as="offset" />
          </mxGeometry>
        </mxCell>
        <mxCell id="pT85UgbYqkh7ice3-jCJ-33" value="" style="endArrow=none;html=1;rounded=0;" edge="1" parent="1" source="pT85UgbYqkh7ice3-jCJ-20" target="pT85UgbYqkh7ice3-jCJ-34">
          <mxGeometry relative="1" as="geometry">
            <mxPoint x="551" y="785" as="sourcePoint" />
            <mxPoint x="611" y="785" as="targetPoint" />
          </mxGeometry>
        </mxCell>
        <mxCell id="pT85UgbYqkh7ice3-jCJ-34" value="&lt;u&gt;matricula&lt;/u&gt;" style="ellipse;whiteSpace=wrap;html=1;align=center;" vertex="1" parent="1">
          <mxGeometry x="586" y="770" width="55" height="30" as="geometry" />
        </mxCell>
        <mxCell id="pT85UgbYqkh7ice3-jCJ-35" value="avala" style="shape=rhombus;perimeter=rhombusPerimeter;whiteSpace=wrap;html=1;align=center;fillColor=#76608a;fontColor=#ffffff;strokeColor=#432D57;" vertex="1" parent="1">
          <mxGeometry x="295" y="780" width="90" height="40" as="geometry" />
        </mxCell>
        <mxCell id="pT85UgbYqkh7ice3-jCJ-36" value="" style="endArrow=none;html=1;rounded=0;exitX=0;exitY=0.5;exitDx=0;exitDy=0;" edge="1" parent="1" source="pT85UgbYqkh7ice3-jCJ-35">
          <mxGeometry relative="1" as="geometry">
            <mxPoint x="272" y="770" as="sourcePoint" />
            <mxPoint x="410" y="690" as="targetPoint" />
            <Array as="points">
              <mxPoint x="225" y="790" />
              <mxPoint x="220" y="690" />
            </Array>
          </mxGeometry>
        </mxCell>
        <mxCell id="pT85UgbYqkh7ice3-jCJ-37" value="(0,1)" style="resizable=0;html=1;whiteSpace=wrap;align=right;verticalAlign=bottom;" connectable="0" vertex="1" parent="pT85UgbYqkh7ice3-jCJ-36">
          <mxGeometry x="1" relative="1" as="geometry">
            <mxPoint x="-25" y="20" as="offset" />
          </mxGeometry>
        </mxCell>
        <mxCell id="pT85UgbYqkh7ice3-jCJ-38" value="avala" style="edgeLabel;html=1;align=center;verticalAlign=middle;resizable=0;points=[];" vertex="1" connectable="0" parent="pT85UgbYqkh7ice3-jCJ-36">
          <mxGeometry x="0.2591" y="-2" relative="1" as="geometry">
            <mxPoint as="offset" />
          </mxGeometry>
        </mxCell>
        <mxCell id="pT85UgbYqkh7ice3-jCJ-39" value="" style="endArrow=none;html=1;rounded=0;exitX=1;exitY=0.5;exitDx=0;exitDy=0;entryX=0.5;entryY=1;entryDx=0;entryDy=0;" edge="1" parent="1" source="pT85UgbYqkh7ice3-jCJ-35" target="pT85UgbYqkh7ice3-jCJ-1">
          <mxGeometry relative="1" as="geometry">
            <mxPoint x="272" y="770" as="sourcePoint" />
            <mxPoint x="409" y="720" as="targetPoint" />
          </mxGeometry>
        </mxCell>
        <mxCell id="pT85UgbYqkh7ice3-jCJ-40" value="(0,N)" style="resizable=0;html=1;whiteSpace=wrap;align=right;verticalAlign=bottom;" connectable="0" vertex="1" parent="pT85UgbYqkh7ice3-jCJ-39">
          <mxGeometry x="1" relative="1" as="geometry">
            <mxPoint x="-9" y="20" as="offset" />
          </mxGeometry>
        </mxCell>
        <mxCell id="pT85UgbYqkh7ice3-jCJ-41" value="avalado" style="edgeLabel;html=1;align=center;verticalAlign=middle;resizable=0;points=[];" vertex="1" connectable="0" parent="pT85UgbYqkh7ice3-jCJ-39">
          <mxGeometry x="-0.1261" y="4" relative="1" as="geometry">
            <mxPoint as="offset" />
          </mxGeometry>
        </mxCell>
        <mxCell id="pT85UgbYqkh7ice3-jCJ-42" value="" style="endArrow=none;html=1;rounded=0;" edge="1" parent="1" source="pT85UgbYqkh7ice3-jCJ-20" target="pT85UgbYqkh7ice3-jCJ-43">
          <mxGeometry relative="1" as="geometry">
            <mxPoint x="491" y="780" as="sourcePoint" />
            <mxPoint x="551" y="780" as="targetPoint" />
          </mxGeometry>
        </mxCell>
        <mxCell id="pT85UgbYqkh7ice3-jCJ-43" value="modelo" style="ellipse;whiteSpace=wrap;html=1;align=center;" vertex="1" parent="1">
          <mxGeometry x="526" y="765" width="50" height="30" as="geometry" />
        </mxCell>
        <mxCell id="pT85UgbYqkh7ice3-jCJ-44" value="" style="endArrow=none;html=1;rounded=0;" edge="1" parent="1" source="pT85UgbYqkh7ice3-jCJ-20" target="pT85UgbYqkh7ice3-jCJ-45">
          <mxGeometry relative="1" as="geometry">
            <mxPoint x="641" y="780" as="sourcePoint" />
            <mxPoint x="701" y="780" as="targetPoint" />
          </mxGeometry>
        </mxCell>
        <mxCell id="pT85UgbYqkh7ice3-jCJ-45" value="color" style="ellipse;whiteSpace=wrap;html=1;align=center;" vertex="1" parent="1">
          <mxGeometry x="676" y="765" width="50" height="30" as="geometry" />
        </mxCell>
        <mxCell id="pT85UgbYqkh7ice3-jCJ-46" value="" style="endArrow=none;html=1;rounded=0;" edge="1" parent="1" source="pT85UgbYqkh7ice3-jCJ-20" target="pT85UgbYqkh7ice3-jCJ-47">
          <mxGeometry relative="1" as="geometry">
            <mxPoint x="441" y="780" as="sourcePoint" />
            <mxPoint x="501" y="780" as="targetPoint" />
          </mxGeometry>
        </mxCell>
        <mxCell id="pT85UgbYqkh7ice3-jCJ-47" value="marca" style="ellipse;whiteSpace=wrap;html=1;align=center;" vertex="1" parent="1">
          <mxGeometry x="476" y="765" width="50" height="30" as="geometry" />
        </mxCell>
      </root>
    </mxGraphModel>
  </diagram>
</mxfile>
